<svg id="Layer_1" data-name="Layer 1" xmlns="http://www.w3.org/2000/svg" viewBox="0 0 458.55 459.57" >
    <path 
        d="M80.19,131.52l1.21-2.69c4.07-9.1,13.54-14.26,22.82-12.45a20.93,20.93,0,0,1,17.33,20.54c.09,5.48,0,11,0,16.23,4.08-.34,8-1.29,11.83-.85a20.54,20.54,0,0,1,18.09,20.54c.13,11.35.06,22.71.08,34.06,0,.12.09.23,0,0,4.39-.2,8.75-1.11,12.85-.43,10.22,1.69,17,10.17,17,20.64.08,18.09,0,36.19.13,54.28a9.63,9.63,0,0,0,2.27,5.83q11.64,12.93,23.71,25.48c6.89,7.13,10,15.4,9.93,25.34-.23,23.08-.07,46.16-.08,69.25,0,6.4-1.86,8.29-8.18,8.29H141.48c-5.91,0-7.9-2-7.92-7.8,0-7.61-.09-15.23,0-22.84a19.85,19.85,0,0,0-6.24-15.05q-22-21.9-43.92-43.95a25.82,25.82,0,0,1-4.25-5.62C68,299.88,56.77,279.43,45.76,258.9a17.24,17.24,0,0,1-2-7.77c-.13-32.07.51-64.15-.3-96.19C43,134.79,62.56,121.45,80.19,131.52ZM205.43,403.41V399.1c0-20.47-.12-40.93.06-61.39a22.88,22.88,0,0,0-6.67-16.82c-16.45-17.41-32.72-35-49.06-52.51-7.41-7.94-14.79-15.9-22.24-23.79-3.5-3.7-8.54-3.62-10.92,0-1.89,2.9-1.35,13.25.86,16.06l36.06,45.91c.88,1.12,1.72,2.28,2.65,3.52l-9.24,7.24c-.7-.8-1.2-1.32-1.65-1.9q-31.8-40.44-63.51-81a11.34,11.34,0,0,1-2-6.51c-.14-24.83,0-49.67-.17-74.5a17.26,17.26,0,0,0-1.92-7.8,11.37,11.37,0,0,0-12.89-5.26c-5.6,1.52-9.05,6.06-9.05,12.23q0,48.66,0,97.33a10.93,10.93,0,0,0,1.4,4.88q15.93,29.43,32,58.76a21.37,21.37,0,0,0,3.58,4.72c13.81,13.89,27.54,27.87,41.59,41.52,7.73,7.52,11.71,16.2,11.22,27-.25,5.44-.05,10.91-.05,16.55ZM103.64,243.09c1.77-2.66,3.5-5.07,5-7.62a7,7,0,0,0,.92-3.44q.07-47,0-93.95c0-5.92-3.63-9.93-8.83-10s-9.1,4-9.11,10.1q0,43.61,0,87.22a5.61,5.61,0,0,0,.67,3.16C96.06,233.52,99.94,238.37,103.64,243.09Zm35.9-3.46V223.31c0-16.58,0-33.16,0-49.74,0-4.75-2.53-8.08-6.67-9.25a8.56,8.56,0,0,0-9.9,4.14,13.16,13.16,0,0,0-1.32,5.7c-.09,17.7-.06,35.41,0,53.11a21.19,21.19,0,0,0,.26,2.44C129.46,230.51,130.77,231.22,139.54,239.63Zm29.76,32.16c.11-1.4.18-2,.18-2.56,0-13.83,0-27.65,0-41.48,0-5.83-3.78-9.84-9-9.83s-8.9,4-8.94,9.87q-.09,11.4,0,22.8a5.5,5.5,0,0,0,1.14,3.31C158,259.72,163.36,265.41,169.3,271.79Z" />
    <path
        d="M307.24,207.7c0-11,0-21.75,0-32.46,0-17.12,12.11-26.31,28.6-21.74a6.36,6.36,0,0,0,1.34,0c0-5,0-10,0-14.94,0-11.65,6.52-20,17.2-22.15,9.82-2,19,3.36,23.42,13.67a15.23,15.23,0,0,0,.83,1.44c8.62-4.75,17.22-4.88,25.49.45,7,4.49,10.81,11.14,10.85,19.43q.21,50.72,0,101.44a11.59,11.59,0,0,1-1.5,5.28q-17.09,31.58-34.36,63a22.27,22.27,0,0,1-3.65,4.68q-21.78,21.89-43.68,43.66a20.68,20.68,0,0,0-6.62,16c.18,7.36.05,14.73,0,22.09,0,5.92-2,7.94-7.78,7.95H248.94c-5.43,0-7.56-2.08-7.57-7.4q0-36.5,0-73a29.91,29.91,0,0,1,8.51-21c8.18-8.75,16.27-17.58,24.55-26.23a9.45,9.45,0,0,0,2.93-7.21c-.15-16.84.6-33.73-.27-50.52C276.29,214.69,289.43,201.35,307.24,207.7Zm6,195.71c0-5.51.22-10.85,0-16.17-.55-10.95,3.35-19.76,11.22-27.38,14.06-13.64,27.77-27.64,41.59-41.52a20.58,20.58,0,0,0,3.4-4.39q16.29-29.67,32.41-59.41a9.29,9.29,0,0,0,1.21-4.19c.07-32.69.11-65.39-.06-98.08a14.7,14.7,0,0,0-2.59-7.57,11.12,11.12,0,0,0-13-4c-5.23,1.77-8.26,6.08-8.27,12,0,25,.07,49.91-.13,74.87a13.79,13.79,0,0,1-2.7,7.76C363,252.62,349.43,269.73,336,286.9l-24,30.53-9.29-7.37c1.06-1.42,1.93-2.62,2.84-3.78,10.86-13.83,21.41-27.93,32.74-41.36,4.51-5.35,5.49-10.8,4.93-17.15a6.41,6.41,0,0,0-10.27-4.69,17.16,17.16,0,0,0-2.41,2.34q-35.62,38.16-71.27,76.32a20.59,20.59,0,0,0-5.91,14.84c.1,21.09,0,42.18,0,63.26,0,1.2.1,2.39.16,3.57Zm41.9-160.32c3.69-4.71,7.57-9.56,11.31-14.52a5.61,5.61,0,0,0,.67-3.16q0-43.6,0-87.22c0-6.1-3.76-10.2-9.09-10.12s-8.84,4.08-8.85,10q0,47,0,93.95a7,7,0,0,0,.9,3.44C351.61,238,353.35,240.42,355.13,243.09Zm-18-13.22c0-19.5.08-38.56-.06-57.62,0-4.18-3.48-7.5-7.51-8.15-5.65-.92-10.32,3.47-10.33,9.9q-.06,31.42,0,62.84c0,.7.07,1.4.17,3.07C324.27,233.9,329.37,229.69,337.14,229.87ZM289.28,272c6.24-6.71,11.84-12.64,17.3-18.7.62-.69.63-2.08.64-3.15q.07-11,0-22c0-6.13-3.67-10.21-9-10.2s-8.92,4.1-8.94,10.25c0,9.35,0,18.69,0,28Z" />
    <path
        d="M228.68,59.73c6.54-4,12.21-8.49,18.63-11.22,18.25-7.76,35.84-5.48,51.46,6.62s22.15,28.75,19.93,48.49a50.48,50.48,0,0,1-16.82,32.49q-33.7,30.78-67.52,61.46c-3.54,3.21-6.24,3.34-9.57.32-23.08-21-46.42-41.67-69.07-63.1-15.12-14.31-19.65-32.46-14-52.47S160.83,49.89,181,45.4c16.36-3.63,31.1.66,44,11.28C226.37,57.78,227.7,58.91,228.68,59.73Zm.75,126.19c22.18-20.22,44.32-39.83,65.78-60.14,15.85-15,16.06-40.52,1.45-56.54s-38-17.46-55.24-3.35c-2.22,1.81-4.38,3.7-6.58,5.55-4.53,3.8-6.42,3.77-11.05-.12-2.77-2.33-5.46-4.76-8.36-6.92-10-7.45-21.13-10.11-33.2-7C167,61.3,157,71.13,153,86.4c-4.09,15.69,0,29.46,11.74,40.6,10.57,10.05,21.53,19.7,32.33,29.52Z" />
</svg>