<svg id="Layer_1" data-name="Layer 1" xmlns="http://www.w3.org/2000/svg" xmlns:xlink="http://www.w3.org/1999/xlink" viewBox="0 0 612 792"><defs><linearGradient id="linear-gradient" x1="146.5" y1="397.86" x2="437.47" y2="397.86" gradientUnits="userSpaceOnUse"><stop offset="0" stop-color="#18aafd"/><stop offset="1" stop-color="#0163e1"/></linearGradient></defs><path d="M351.47,314.78c18.86,0,37.16.09,55.46,0,9.42-.07,17.84,2.46,22.69,10.83a34.29,34.29,0,0,1,4.68,15.87c.47,25.29.28,50.59.16,75.89-.07,15.83-10.47,26.25-26.35,26.41-17,.16-34,0-50.95,0H351v6.69q0,87.12-.1,174.25c0,4.72-.5,9.82-2.31,14.08-4.25,10-12.56,14.78-23.37,14.81q-40,.14-79.92,0c-15-.05-25.05-9.64-26-24.58-.12-2-.08-4-.08-6q0-86.11,0-172.25v-7h-5.8c-13.32,0-26.64.06-40,0-16.6-.11-26.84-10.23-26.91-26.75q-.13-38,0-75.89c.07-16.11,10.07-26.13,26.17-26.31,13.49-.15,27,0,40.46,0h6c0-2.66-.06-4.77,0-6.88.76-20.42-.22-41.1,2.72-61.21,5.74-39.33,25.66-70.21,61.25-89.59,17.32-9.44,35.94-14.77,55.82-14.84,25-.08,50,.37,74.92-.21,9.93-.24,20.25,8.15,22.45,17.77a40.33,40.33,0,0,1,1,8.9q.12,34.2,0,68.4c0,17.39-10.14,27.48-27.67,27.63-14.81.13-29.63.18-44.45.29a26.78,26.78,0,0,0-4.47.36c-7.42,1.33-9.11,2.83-9.29,10.48C351.25,288.63,351.47,301.4,351.47,314.78Zm-174.65,99h6.07c16.15,0,32.3-.07,48.45,0,11.13.07,17.53,6.44,18,17.63.06,1.5,0,3,0,4.5V623.36h71.58v-6.67q0-91.38,0-182.76c0-14.1,6-20.16,20-20.17q29,0,57.95,0h5.34V344.81h-5.66c-19.65,0-39.3.07-58.95,0-10.95,0-18.22-5.87-18.39-16.17-.34-18.95-.62-38,.72-56.87,1.49-21,13.09-33,33.89-35.5,14.47-1.71,29.21-1.12,43.84-1.54,2.45-.07,4.9,0,7.53,0V171.84a6.63,6.63,0,0,0-1.61-.49c-21.48.07-43-.45-64.43.4-22.13.88-42.53,7.69-59.5,22.58-21.48,18.85-30.51,43.58-31.82,71.29-.91,19.44-.39,38.94-.47,58.41-.06,14.58-6.14,20.76-20.55,20.78h-52Z" style="fill:url(#linear-gradient)"/></svg>