<svg id="Layer_1" data-name="Layer 1" xmlns="http://www.w3.org/2000/svg" xmlns:xlink="http://www.w3.org/1999/xlink" viewBox="0 0 612 792"><defs><linearGradient id="linear-gradient" x1="238.01" y1="471.26" x2="580.89" y2="471.26" gradientUnits="userSpaceOnUse"><stop offset="0" stop-color="#0a66c2"/><stop offset="1" stop-color="#0a66c2"/></linearGradient><linearGradient id="linear-gradient-2" x1="76.92" y1="476.51" x2="208.67" y2="476.51" xlink:href="#linear-gradient"/><linearGradient id="linear-gradient-3" x1="68.64" y1="216.86" x2="216.82" y2="216.86" xlink:href="#linear-gradient"/></defs><path d="M560.25,651h-91.4a20.64,20.64,0,0,1-20.64-20.64c0-9.15,0-18.09,0-19.12-.05-60.71-.07-88.38-.17-149.09,0-19.85-10.93-34.71-28.8-39.58a38.74,38.74,0,0,0-48.62,32.65,79,79,0,0,0-.51,9.48c0,59.87,0-5,0,54.88V630a20.64,20.64,0,0,1-20.64,20.64H258.65A20.64,20.64,0,0,1,238,630V316a13.47,13.47,0,0,1,13.47-13.47h99.58A13.47,13.47,0,0,1,364.53,316v5.36c1.91-1.28,3.1-2,4.21-2.84,67.95-51,166-27,200.73,49.19A124.17,124.17,0,0,1,580,406a32.48,32.48,0,0,0,.89,3.85V630.4A20.64,20.64,0,0,1,560.25,651Zm-9.37-30.29v-4.3q0-98.48-.08-196.93a84.78,84.78,0,0,0-1.3-14.92c-10.45-57.89-66.91-94.27-124.37-80.28-27.39,6.66-48.39,22.28-63.47,46-1.15,1.81-3,4.35-4.67,4.46-3.23.22-6.46.29-9.74.29a12.61,12.61,0,0,1-12.61-12.63v-30c-35.36-.36-27.45,0-66.67,0V620.68h72.1V614c0-50.86-.13-101.71,0-152.56.15-45.58,40.25-78.08,84.23-68.55,31.47,6.81,53.58,34.71,53.69,68.21.16,51,.12,102,.16,153.06v6.6Z" style="fill:url(#linear-gradient)"/><path d="M93.47,302.33h98.65a16.55,16.55,0,0,1,16.55,16.55V630A20.65,20.65,0,0,1,188,650.69H97.56A20.65,20.65,0,0,1,76.92,630V318.88A16.55,16.55,0,0,1,93.47,302.33Zm85.22,318.49V332.51H106.91V620.82Z" style="fill:url(#linear-gradient-2)"/><path d="M142.49,291a74.12,74.12,0,1,1,74.33-73.79A74.1,74.1,0,0,1,142.49,291Zm44.3-74.23a44.07,44.07,0,1,0-44,44.19A44.11,44.11,0,0,0,186.79,216.75Z" style="fill:url(#linear-gradient-3)"/></svg>