<svg id="Layer_1" data-name="Layer 1" xmlns="http://www.w3.org/2000/svg" viewBox="0 0 156.39 98.56"><polyline points="26.06 60.82 26.06 0.46 129.46 0.46 129.46 61.08" style="fill:none;stroke:#811dd8;stroke-miterlimit:10;stroke-width:0.924928718109148px"/><polyline points="129.46 79.99 129.46 98.1 26.06 98.1 26.06 79.99" style="fill:none;stroke:#811dd8;stroke-miterlimit:10;stroke-width:0.924928718109148px"/><path d="M6.59,73.26H3.34l-.44,1H1.16L4.7,66.22h.54L8.78,74.3H7ZM5,69.25,3.91,71.93H6Z"/><path d="M20.47,66.36v8.08h-.54l-4.6-4.9V74.3H13.71V66.22h.53l4.6,4.88V66.36Z"/><path d="M30.81,73.26H27.56l-.44,1H25.37l3.55-8.08h.54L33,74.3H31.25Zm-1.62-4-1.06,2.68h2.11Z"/><path d="M44.68,66.36v8.08h-.54l-4.59-4.9V74.3H37.93V66.22h.53l4.6,4.88V66.36Z"/><path d="M52.14,67.83H49.6V66.36h6.71v1.47H53.76V74.3H52.14Z"/><path d="M61.23,66.36h1.62v3h3.51v-3H68V74.3H66.36V70.87H62.85V74.3H61.23Z"/><path d="M85.89,74.3l-3.4-4.14V74.3H80.87V66.36h1.62V70l3-3.68h1.94l-3,3.74,3.44,4.2Z"/><path d="M97.45,73.26H94.2l-.44,1H92l3.55-8.08h.54l3.54,8.08H97.89Zm-1.62-4-1.06,2.68h2.11Z"/><path d="M109.44,74.3l-2.06-2.8h-1.19v2.8h-1.62V66.36h3a2.61,2.61,0,0,1,2.86,2.56A2.46,2.46,0,0,1,109,71.18l2.24,3.12Zm-3.25-4.24h1.36a1.08,1.08,0,0,0,1.2-1.14,1.1,1.1,0,0,0-1.2-1.13h-1.36Z"/><path d="M117.6,67.83h-2.54V66.36h6.71v1.47h-2.54V74.3H117.6Z"/><path d="M126.69,66.36h1.63v3h3.51v-3h1.62V74.3h-1.62V70.87h-3.51V74.3h-1.63Z"/><path d="M139.11,66.36h1.63V74.3h-1.63Z"/><path d="M151.43,74.3,148,70.16V74.3H146.4V66.36H148V70l3-3.68H153l-3,3.74,3.44,4.2Z"/><path d="M71,44.18q-5.6,8.51-11.07,8.5a18.94,18.94,0,0,1-7-1.54,36.79,36.79,0,0,1-7.21-3.83,46.77,46.77,0,0,1-6.09-4.93,21.59,21.59,0,0,1-3.93-4.84c-1.05-1.9-1.19-3.43-.44-4.6.92-1.4,3-2,6.24-1.72a49.22,49.22,0,0,1,6.56,1q3.57.77,7.53,2c2.64.82,5.06,1.63,7.25,2.41s4.69,1.72,7.49,2.78a1.56,1.56,0,0,0,1.2,0,1.7,1.7,0,0,0,.92-.81c.84-1.61,1.66-3.37,2.48-5.27a141.09,141.09,0,0,0,6.37-18.23.7.7,0,0,1,.7-.55.67.67,0,0,1,.76.46,9.67,9.67,0,0,1,.28,2.46c0,1.29.08,3.67.1,7.12q.09,12.77.55,18.81a1.58,1.58,0,0,0,.35.92,1.85,1.85,0,0,0,.82.57,23.87,23.87,0,0,0,6.87,1.6.72.72,0,0,1,.52.22.74.74,0,0,1,.25.52.75.75,0,0,1-.74.78,19.88,19.88,0,0,1-6.2-1.29,1.08,1.08,0,0,0-1.37,1.2c.33,1.92.72,3,1.19,3.14a.82.82,0,0,1,.44.4.69.69,0,0,1,0,.56.75.75,0,0,1-.38.44.71.71,0,0,1-.57.06c-1.12-.37-1.93-2.33-2.41-5.88a1.59,1.59,0,0,0-1.11-1.34C80,44.75,77.84,44,75.14,42.9l-.67-.16-.61-.13-.51-.07a1.3,1.3,0,0,0-.49,0,4.14,4.14,0,0,0-.44.14A1.39,1.39,0,0,0,72,43a6.58,6.58,0,0,0-.43.5A4.39,4.39,0,0,0,71,44.18ZM40.17,32.68c-1.9,0-3.09.36-3.55,1.08s-.27,1.68.49,3.05A19.86,19.86,0,0,0,41,41.58a43.3,43.3,0,0,0,5.93,4.65,37.25,37.25,0,0,0,6.77,3.53A17.3,17.3,0,0,0,60,51.17q4.8,0,10-8.1a1.69,1.69,0,0,0-.82-2.5q-8.58-3.28-15.43-5.36a57.8,57.8,0,0,0-12.23-2.47C41,32.7,40.58,32.68,40.17,32.68ZM81.08,21.53a116,116,0,0,1-7.86,19l1.17.47C77.08,42,79,42.77,80.24,43.22A1.3,1.3,0,0,0,81.55,43a1.28,1.28,0,0,0,.55-1.21q-.34-5.61-.43-17.21,0-2,0-2.94a.78.78,0,0,0-.11-.46c-.06-.1-.14-.13-.23-.08S81.14,21.31,81.08,21.53Z"/><path d="M117.66,45.86a.78.78,0,0,1,.54.23.69.69,0,0,1,.2.54.78.78,0,0,1-.25.55,16.5,16.5,0,0,1-4.73,3.06A23.79,23.79,0,0,1,107.84,52a27.68,27.68,0,0,1-5.15.42,10.44,10.44,0,0,1-3.79-.63q-1.71-.66-1.74-2,0-.09-.24.06a18,18,0,0,0-2.53,3,.71.71,0,0,1-.9.26.69.69,0,0,1-.5-.78q.3-3,.57-5.46c.19-1.65.42-3.41.71-5.29s.62-3.54,1-5,.77-2.79,1.22-4a10.66,10.66,0,0,1,1.59-3,3.65,3.65,0,0,1,2-1.38,1.95,1.95,0,0,1,2.24.58,2.24,2.24,0,0,1,.35,1.23,6.37,6.37,0,0,1-.19,1.72,18.77,18.77,0,0,1-.64,2.14c-.28.8-.59,1.59-.94,2.36s-.75,1.6-1.18,2.48-.86,1.67-1.26,2.4-.81,1.48-1.25,2.24-.8,1.4-1.1,1.89l-.89,1.45s0,.05-.06.05c-.08.65-.16,1.31-.23,2a.39.39,0,0,0,.23.43.36.36,0,0,0,.46-.1,16.2,16.2,0,0,1,4.69-3.41c1.56-.7,2.62-1,3.21-.76a.86.86,0,0,1,.58.85c0,.48-.5.83-1.43,1a20.27,20.27,0,0,0-2.39,1.34,6.32,6.32,0,0,0-1.23,1,1.11,1.11,0,0,0-.31.61c0,.22.26.43.79.65a9.41,9.41,0,0,0,3.43.5,27.73,27.73,0,0,0,4.74-.4,21.45,21.45,0,0,0,5.12-1.58,14.35,14.35,0,0,0,4.32-2.81A.73.73,0,0,1,117.66,45.86ZM100.39,29.65Q97.77,30.3,96,40.92a.31.31,0,0,0,.24.39.31.31,0,0,0,.43-.16,58.83,58.83,0,0,0,3.72-7.7c.78-2.11,1-3.37.71-3.8a.33.33,0,0,0-.23-.06A1.56,1.56,0,0,0,100.39,29.65Z"/></svg>